<svg id="visual" viewBox="0 0 900 600" width="900" height="600" xmlns="http://www.w3.org/2000/svg" xmlns:xlink="http://www.w3.org/1999/xlink" version="1.1"><rect x="0" y="0" width="900" height="600" fill="#fff"></rect><defs><linearGradient id="grad1_0" x1="33.3%" y1="100%" x2="100%" y2="0%"><stop offset="20%" stop-color="#ffffff" stop-opacity="1"></stop><stop offset="80%" stop-color="#ffffff" stop-opacity="1"></stop></linearGradient></defs><defs><linearGradient id="grad2_0" x1="0%" y1="100%" x2="66.7%" y2="0%"><stop offset="20%" stop-color="#ffffff" stop-opacity="1"></stop><stop offset="80%" stop-color="#ffffff" stop-opacity="1"></stop></linearGradient></defs><g transform="translate(900, 600)"><path d="M-486.7 0C-435.5 -43.6 -384.3 -87.2 -369.6 -153.1C-354.8 -219 -376.7 -307.1 -344.2 -344.2C-311.7 -381.3 -224.9 -367.2 -158.4 -382.5C-92 -397.7 -46 -442.2 0 -486.7L0 0Z" fill="#9775fa"></path></g><g transform="translate(0, 0)"><path d="M486.7 0C487.3 71.3 487.8 142.6 449.7 186.3C411.6 230 335 246.1 287.8 287.8C240.6 329.5 222.9 396.8 179.9 434.2C136.8 471.6 68.4 479.2 0 486.7L0 0Z" fill="#9775fa"></path></g></svg>