<svg id="visual" viewBox="0 0 960 540" width="960" height="540" xmlns="http://www.w3.org/2000/svg" xmlns:xlink="http://www.w3.org/1999/xlink" version="1.1"><rect x="0" y="0" width="960" height="540" fill="#fff"></rect><defs><linearGradient id="grad1_0" x1="43.8%" y1="100%" x2="100%" y2="0%"><stop offset="14.444444444444446%" stop-color="#ffffff" stop-opacity="1"></stop><stop offset="85.55555555555554%" stop-color="#ffffff" stop-opacity="1"></stop></linearGradient></defs><defs><linearGradient id="grad2_0" x1="0%" y1="100%" x2="56.3%" y2="0%"><stop offset="14.444444444444446%" stop-color="#ffffff" stop-opacity="1"></stop><stop offset="85.55555555555554%" stop-color="#ffffff" stop-opacity="1"></stop></linearGradient></defs><g transform="translate(960, 540)"><path d="M-243 0C-240.6 -18.3 -238.1 -36.7 -230.1 -52.5C-222 -68.4 -208.4 -81.7 -198.2 -95.5C-188 -109.2 -181.3 -123.2 -174.3 -139C-167.4 -154.9 -160.3 -172.5 -149 -186.9C-137.7 -201.2 -122.2 -212.3 -105.4 -218.9C-88.6 -225.6 -70.5 -227.8 -52.7 -231.1C-34.9 -234.3 -17.5 -238.7 0 -243L0 0Z" fill="#fff3bf"></path></g><g transform="translate(0, 0)"><path d="M243 0C236.2 17.4 229.4 34.8 222.3 50.7C215.2 66.7 207.7 81.2 202.7 97.6C197.7 114.1 195 132.5 187.6 149.6C180.2 166.8 168.1 182.7 151.5 190C135 197.3 114 196.1 97.2 201.8C80.3 207.5 67.6 220.1 52.1 228.1C36.6 236.1 18.3 239.6 0 243L0 0Z" fill="#fff3bf"></path></g></svg>