<svg id="visual" viewBox="0 0 960 540" width="960" height="540" xmlns="http://www.w3.org/2000/svg" xmlns:xlink="http://www.w3.org/1999/xlink" version="1.1"><rect x="0" y="0" width="960" height="540" fill="#fff"></rect><defs><linearGradient id="grad1_0" x1="43.8%" y1="0%" x2="100%" y2="100%"><stop offset="14.444444444444446%" stop-color="#ffffff" stop-opacity="1"></stop><stop offset="85.55555555555554%" stop-color="#ffffff" stop-opacity="1"></stop></linearGradient></defs><defs><linearGradient id="grad2_0" x1="0%" y1="0%" x2="56.3%" y2="100%"><stop offset="14.444444444444446%" stop-color="#ffffff" stop-opacity="1"></stop><stop offset="85.55555555555554%" stop-color="#ffffff" stop-opacity="1"></stop></linearGradient></defs><g transform="translate(960, 0)"><path d="M0 459C-41.3 435.7 -82.6 412.4 -130.7 402.3C-178.8 392.2 -233.7 395.4 -269.8 371.3C-305.9 347.3 -323.3 295.9 -350.3 254.5C-377.3 213.1 -414 181.7 -433.7 140.9C-453.4 100.2 -456.2 50.1 -459 0L0 0Z" fill="#fff3bf"></path></g><g transform="translate(0, 540)"><path d="M0 -459C50.4 -457.6 100.8 -456.1 141.8 -436.5C182.9 -416.9 214.6 -379.1 254.5 -350.3C294.5 -321.5 342.6 -301.7 364.9 -265.1C387.1 -228.5 383.3 -175.2 394.7 -128.2C406 -81.3 432.5 -40.6 459 0L0 0Z" fill="#fff3bf"></path></g></svg>