<svg id="visual" viewBox="0 0 400 400" width="400" height="400" xmlns="http://www.w3.org/2000/svg" xmlns:xlink="http://www.w3.org/1999/xlink" version="1.1"><g transform="translate(178.6606278452841 216.52470457081535)"><path d="M87.2 -95.6C120.1 -76.4 158.5 -55.6 167 -26.6C175.5 2.3 154 39.4 126.9 60.9C99.7 82.3 67 88.2 37.2 96.4C7.5 104.6 -19.2 115.3 -45.2 111.4C-71.3 107.4 -96.7 89 -110.4 64.2C-124.1 39.5 -126.1 8.5 -126.2 -27.7C-126.3 -63.8 -124.5 -105.1 -103.2 -126.3C-81.8 -147.5 -40.9 -148.8 -6.9 -140.6C27.2 -132.4 54.4 -114.9 87.2 -95.6" fill="#ffe066"></path></g></svg>