<svg id="visual" viewBox="0 0 900 600" width="900" height="600" xmlns="http://www.w3.org/2000/svg" xmlns:xlink="http://www.w3.org/1999/xlink" version="1.1"><rect x="0" y="0" width="900" height="600" fill="#d0bfff"></rect><path d="M0 391L129 373L257 437L386 441L514 371L643 413L771 446L900 371L900 601L771 601L643 601L514 601L386 601L257 601L129 601L0 601Z" fill="#9775fa"></path><path d="M0 412L129 400L257 413L386 394L514 419L643 393L771 440L900 416L900 601L771 601L643 601L514 601L386 601L257 601L129 601L0 601Z" fill="#8967ec"></path><path d="M0 467L129 468L257 460L386 457L514 461L643 488L771 468L900 440L900 601L771 601L643 601L514 601L386 601L257 601L129 601L0 601Z" fill="#7b59df"></path><path d="M0 513L129 482L257 513L386 482L514 508L643 529L771 494L900 513L900 601L771 601L643 601L514 601L386 601L257 601L129 601L0 601Z" fill="#6d4bd1"></path><path d="M0 547L129 562L257 542L386 552L514 565L643 541L771 527L900 544L900 601L771 601L643 601L514 601L386 601L257 601L129 601L0 601Z" fill="#5f3dc4"></path></svg>