<svg id="visual" viewBox="0 0 900 600" width="900" height="600" xmlns="http://www.w3.org/2000/svg" xmlns:xlink="http://www.w3.org/1999/xlink" version="1.1"><rect x="0" y="0" width="900" height="600" fill="#fff"></rect><defs><linearGradient id="grad1_0" x1="33.3%" y1="100%" x2="100%" y2="0%"><stop offset="20%" stop-color="#ffffff" stop-opacity="1"></stop><stop offset="80%" stop-color="#ffffff" stop-opacity="1"></stop></linearGradient></defs><defs><linearGradient id="grad2_0" x1="0%" y1="100%" x2="66.7%" y2="0%"><stop offset="20%" stop-color="#ffffff" stop-opacity="1"></stop><stop offset="80%" stop-color="#ffffff" stop-opacity="1"></stop></linearGradient></defs><g transform="translate(900, 600)"><path d="M-486.7 0C-451.1 -50.5 -415.4 -101.1 -398.2 -164.9C-380.9 -228.8 -382.1 -305.9 -344.2 -344.2C-306.2 -382.4 -229.2 -381.8 -165.3 -399.1C-101.4 -416.4 -50.7 -451.6 0 -486.7L0 0Z" fill="#9775fa"></path></g><g transform="translate(0, 0)"><path d="M486.7 0C472.3 61.2 457.9 122.5 435.1 180.2C412.4 238 381.3 292.3 339.4 339.4C297.5 386.5 244.7 426.3 186.3 449.7C127.9 473 63.9 479.9 0 486.7L0 0Z" fill="#9775fa"></path></g></svg>