<svg xmlns="http://www.w3.org/2000/svg" width="256" height="256" viewBox="0 0 100 100"><rect width="100" height="100" rx="20" fill="#7d6ee7"></rect><path d="M48.97 51.21L48.97 66.61Q48.97 67.89 48.22 68.74Q47.48 69.60 45.99 70.38L45.99 70.38Q44.21 71.23 41.09 71.87Q37.97 72.51 34.77 72.51L34.77 72.51Q29.80 72.51 25.68 71.16Q21.56 69.81 18.58 67.04Q15.60 64.27 13.97 60.05Q12.33 55.82 12.33 50.07L12.33 50.07Q12.33 44.39 14.04 40.13Q15.74 35.87 18.69 33.07Q21.64 30.26 25.54 28.88Q29.45 27.49 33.85 27.49L33.85 27.49Q36.83 27.49 39.35 27.99Q41.87 28.49 43.65 29.30Q45.42 30.12 46.41 31.11Q47.41 32.11 47.41 33.10L47.41 33.10Q47.41 34.10 46.84 34.81Q46.27 35.52 45.49 35.87L45.49 35.87Q43.57 34.59 40.95 33.49Q38.32 32.39 34.20 32.39L34.20 32.39Q30.79 32.39 27.88 33.53Q24.97 34.66 22.84 36.87Q20.71 39.07 19.51 42.40Q18.30 45.74 18.30 50.07L18.30 50.07Q18.30 54.69 19.54 57.99Q20.78 61.29 23.02 63.42Q25.26 65.55 28.27 66.58Q31.29 67.61 34.84 67.61L34.84 67.61Q37.40 67.61 39.67 67.18Q41.94 66.76 43.22 66.12L43.22 66.12L43.22 53.05L32.50 53.05Q32.29 52.70 32.07 52.09Q31.86 51.49 31.86 50.78L31.86 50.78Q31.86 49.57 32.43 48.90Q33.00 48.23 34.06 48.23L34.06 48.23L45.92 48.23Q47.20 48.23 48.08 49.04Q48.97 49.86 48.97 51.21L48.97 51.21ZM72.12 67.68L72.12 67.68Q76.87 67.68 79.32 65.51Q81.77 63.35 81.77 59.94L81.77 59.94Q81.77 56.96 79.89 55.11Q78.01 53.27 73.96 52.06L73.96 52.06L67.79 50.21Q63.24 48.86 60.65 46.24Q58.06 43.61 58.06 39.14L58.06 39.14Q58.06 36.44 59.09 34.27Q60.12 32.11 62.03 30.62Q63.95 29.13 66.61 28.31Q69.28 27.49 72.61 27.49L72.61 27.49Q75.45 27.49 77.90 27.95Q80.35 28.42 82.16 29.23Q83.97 30.05 84.97 31.04Q85.96 32.04 85.96 33.10L85.96 33.10Q85.96 34.10 85.46 34.81Q84.97 35.52 84.19 35.94L84.19 35.94Q82.34 34.52 79.39 33.46Q76.45 32.39 72.83 32.39L72.83 32.39Q68.64 32.39 66.26 34.17Q63.88 35.94 63.88 39.14L63.88 39.14Q63.88 41.62 65.58 43.18Q67.29 44.75 71.26 45.88L71.26 45.88L75.60 47.16Q81.20 48.79 84.44 51.74Q87.67 54.69 87.67 59.94L87.67 59.94Q87.67 65.55 83.62 69.03Q79.57 72.51 72.12 72.51L72.12 72.51Q68.85 72.51 66.19 71.94Q63.53 71.37 61.64 70.45Q59.76 69.53 58.73 68.42Q57.70 67.32 57.70 66.26L57.70 66.26Q57.70 65.05 58.45 64.24Q59.19 63.42 60.19 63.06L60.19 63.06Q60.97 63.84 62.11 64.66Q63.24 65.48 64.73 66.15Q66.22 66.83 68.07 67.25Q69.92 67.68 72.12 67.68Z" fill="#fff"></path></svg>